<!-- icon666.com - MILLIONS OF FREE VECTOR ICONS --><svg xmlns="http://www.w3.org/2000/svg" version="1.1" viewBox="0 0 512.004 512"><g id="surface1"><path d="M 511.996094 256.003906 C 511.996094 397.382812 397.382812 511.996094 256 511.996094 C 114.617188 511.996094 0.00390625 397.382812 0.00390625 256.003906 C 0.00390625 114.621094 114.617188 0.0078125 256 0.0078125 C 397.382812 0.0078125 511.996094 114.621094 511.996094 256.003906 Z M 511.996094 256.003906 " style="stroke: none; fill-rule: nonzero; fill-opacity: 1; fill: rgb(255, 255, 255);" fill="rgb(92.54902%,92.941176%,93.72549%)"></path><path d="M 30.945312 256.003906 C 30.945312 119.816406 137.292969 8.484375 271.472656 0.484375 C 266.351562 0.179688 261.195312 0.0078125 256 0.0078125 C 114.617188 0.0078125 0.00390625 114.621094 0.00390625 256.003906 C 0.00390625 397.382812 114.617188 511.996094 256 511.996094 C 261.195312 511.996094 266.351562 511.824219 271.472656 511.519531 C 137.296875 503.519531 30.945312 392.1875 30.945312 256.003906 Z M 30.945312 256.003906 " style="stroke: none; fill-rule: nonzero; fill-opacity: 1; fill: rgb(255, 255, 255);" fill="rgb(85.882353%,86.27451%,87.058824%)"></path><path d="M 30.941406 256.003906 C 30.941406 205.761719 45.425781 158.914062 70.429688 119.375 L 61.601562 93.179688 C 61.308594 92.328125 60.941406 91.507812 60.519531 90.730469 L 60.507812 90.71875 C 22.757812 135.316406 0 193 0 256.003906 C 0 265.914062 0.5625 275.707031 1.664062 285.324219 L 1.683594 285.324219 C 3.152344 284.761719 4.554688 283.984375 5.828125 282.972656 L 31.039062 262.832031 C 30.980469 260.5625 30.941406 258.285156 30.941406 256.003906 Z M 30.941406 256.003906 " style="stroke: none; fill-rule: nonzero; fill-opacity: 1; fill: rgb(0, 0, 0);" fill="rgb(15.294118%,29.411765%,42.745098%)"></path><path d="M 267.710938 0.285156 C 267.363281 0.269531 267.015625 0.257812 266.671875 0.242188 C 264.9375 0.167969 263.195312 0.113281 261.453125 0.0742188 C 259.859375 0.0429688 258.261719 0.015625 256.65625 0.0117188 C 256.4375 0.0078125 256.21875 0.00390625 256 0.00390625 C 254.351562 0.00390625 252.710938 0.0351562 251.070312 0.0664062 C 250.496094 0.078125 249.917969 0.0742188 249.347656 0.0898438 C 247.992188 0.125 246.644531 0.1875 245.292969 0.242188 C 244.398438 0.28125 243.5 0.304688 242.605469 0.351562 C 241.324219 0.417969 240.050781 0.511719 238.773438 0.59375 C 237.820312 0.65625 236.863281 0.710938 235.914062 0.785156 C 234.671875 0.882812 233.433594 1 232.195312 1.113281 C 231.21875 1.207031 230.238281 1.289062 229.265625 1.390625 C 228.050781 1.515625 226.839844 1.664062 225.628906 1.804688 C 224.640625 1.921875 223.652344 2.035156 222.667969 2.164062 C 221.472656 2.316406 220.289062 2.492188 219.097656 2.664062 C 218.105469 2.804688 217.109375 2.949219 216.121094 3.101562 C 214.949219 3.285156 213.78125 3.484375 212.617188 3.683594 C 211.617188 3.851562 210.617188 4.023438 209.621094 4.207031 C 208.472656 4.417969 207.328125 4.640625 206.1875 4.863281 C 205.179688 5.0625 204.175781 5.261719 203.171875 5.472656 C 202.050781 5.710938 200.929688 5.953125 199.8125 6.207031 C 198.796875 6.433594 197.785156 6.664062 196.777344 6.902344 C 195.679688 7.164062 194.589844 7.429688 193.5 7.703125 C 192.472656 7.960938 191.449219 8.226562 190.425781 8.496094 C 189.363281 8.777344 188.304688 9.0625 187.246094 9.355469 C 186.203125 9.648438 185.160156 9.945312 184.121094 10.25 C 183.097656 10.546875 182.078125 10.847656 181.0625 11.160156 C 179.988281 11.488281 178.921875 11.828125 177.855469 12.167969 C 176.882812 12.480469 175.910156 12.792969 174.941406 13.113281 C 173.828125 13.484375 172.722656 13.871094 171.613281 14.257812 C 170.707031 14.574219 169.796875 14.890625 168.894531 15.21875 C 167.714844 15.644531 166.542969 16.085938 165.375 16.527344 C 164.554688 16.839844 163.734375 17.144531 162.917969 17.464844 C 161.628906 17.96875 160.347656 18.488281 159.070312 19.011719 C 158.386719 19.292969 157.695312 19.566406 157.015625 19.851562 C 155.527344 20.476562 154.046875 21.125 152.574219 21.777344 C 152.175781 21.953125 151.777344 22.121094 151.378906 22.300781 C 152.394531 25.320312 154.347656 28.015625 157.101562 29.949219 L 161.328125 32.910156 C 194.214844 14.355469 231.617188 2.859375 271.472656 0.484375 C 270.21875 0.410156 268.964844 0.34375 267.710938 0.285156 Z M 267.710938 0.285156 " style="stroke: none; fill-rule: nonzero; fill-opacity: 1; fill: rgb(0, 0, 0);" fill="rgb(15.294118%,29.411765%,42.745098%)"></path><path d="M 451.488281 90.71875 L 451.480469 90.730469 C 451.058594 91.507812 450.691406 92.328125 450.398438 93.179688 L 415.257812 197.457031 C 415.160156 197.75 415.070312 198.042969 414.992188 198.335938 C 414.769531 199.164062 414.121094 199.769531 413.292969 199.996094 C 413.0625 200.054688 412.832031 200.132812 412.601562 200.21875 L 357.914062 220.84375 C 356.957031 221.207031 355.878906 221.070312 355.042969 220.480469 L 354.898438 220.378906 L 264.773438 157.253906 C 264.71875 157.21875 264.664062 157.179688 264.609375 157.144531 C 263.957031 156.703125 263.628906 155.945312 263.703125 155.160156 C 263.722656 154.9375 263.734375 154.714844 263.734375 154.488281 L 263.734375 95.839844 C 263.734375 95.613281 263.722656 95.386719 263.703125 95.167969 C 263.628906 94.375 263.957031 93.617188 264.613281 93.171875 C 264.667969 93.136719 264.722656 93.097656 264.777344 93.0625 L 354.898438 29.949219 C 357.652344 28.015625 359.605469 25.320312 360.621094 22.292969 C 328.6875 7.96875 293.277344 0.00390625 256 0.00390625 C 218.722656 0.00390625 183.3125 7.96875 151.378906 22.292969 C 152.394531 25.316406 154.347656 28.015625 157.101562 29.949219 L 247.234375 93.0625 C 247.285156 93.097656 247.335938 93.132812 247.386719 93.167969 C 248.042969 93.613281 248.371094 94.375 248.296875 95.164062 C 248.277344 95.386719 248.265625 95.613281 248.265625 95.839844 L 248.265625 154.484375 C 248.265625 154.710938 248.277344 154.9375 248.296875 155.15625 C 248.371094 155.945312 248.042969 156.703125 247.390625 157.144531 C 247.335938 157.179688 247.285156 157.21875 247.234375 157.253906 L 157.101562 220.375 C 156.832031 220.5625 156.578125 220.757812 156.328125 220.957031 C 155.882812 221.320312 155.269531 221.378906 154.75 221.125 C 154.535156 221.019531 154.316406 220.921875 154.085938 220.835938 L 99.398438 200.210938 C 99.171875 200.121094 98.941406 200.050781 98.710938 199.988281 C 97.886719 199.765625 97.238281 199.15625 97.015625 198.332031 C 96.9375 198.039062 96.851562 197.746094 96.75 197.457031 L 61.601562 93.179688 C 61.308594 92.328125 60.941406 91.507812 60.519531 90.730469 L 60.511719 90.71875 C 22.757812 135.316406 0 193 0 256.003906 C 0 265.914062 0.5625 275.703125 1.664062 285.324219 L 1.683594 285.324219 C 3.152344 284.761719 4.554688 283.984375 5.828125 282.972656 L 90.292969 215.488281 C 90.378906 215.421875 90.8125 215.070312 91.253906 214.710938 C 91.90625 214.179688 92.792969 214.039062 93.578125 214.347656 C 101.898438 217.613281 148.628906 235.3125 148.628906 235.3125 C 149.054688 235.472656 149.488281 235.589844 149.921875 235.671875 C 150.480469 235.777344 150.933594 236.179688 151.070312 236.734375 C 151.160156 237.082031 151.261719 237.433594 151.378906 237.78125 L 185.578125 339.230469 C 185.667969 339.488281 185.761719 339.746094 185.863281 340 C 186.214844 340.867188 186.101562 341.835938 185.550781 342.589844 C 185.515625 342.632812 185.484375 342.679688 185.453125 342.726562 L 145.605469 399.527344 L 145.574219 399.570312 C 144.972656 400.429688 143.976562 400.898438 142.925781 400.882812 C 142.644531 400.878906 142.363281 400.882812 142.085938 400.894531 L 47.535156 404.609375 C 82.6875 453.835938 134.839844 490.089844 195.425781 504.792969 L 195.4375 504.773438 L 158.285156 413.933594 C 158.269531 413.894531 158.050781 413.363281 157.78125 412.707031 C 157.199219 411.292969 157.378906 409.679688 158.257812 408.429688 L 158.269531 408.414062 C 158.269531 408.414062 195.367188 355.070312 198.867188 349.984375 C 199.035156 349.742188 199.304688 349.601562 199.601562 349.601562 C 206.773438 349.605469 293.324219 349.625 310.042969 349.609375 C 311.804688 349.605469 313.457031 350.46875 314.460938 351.921875 C 321.160156 361.574219 347.519531 399.335938 353.90625 408.230469 C 354.765625 409.421875 354.945312 410.96875 354.386719 412.328125 C 348.546875 426.601562 316.566406 504.773438 316.566406 504.773438 L 316.566406 504.796875 L 316.578125 504.796875 C 377.164062 490.089844 429.320312 453.839844 464.46875 404.609375 L 369.933594 400.898438 C 369.59375 400.882812 369.257812 400.878906 368.921875 400.890625 C 367.914062 400.914062 366.988281 400.433594 366.414062 399.605469 C 366.410156 399.601562 366.40625 399.597656 366.402344 399.589844 L 326.554688 342.789062 C 326.527344 342.75 326.496094 342.707031 326.46875 342.667969 C 325.902344 341.898438 325.789062 340.90625 326.144531 340.019531 C 326.25 339.761719 326.34375 339.496094 326.433594 339.230469 L 360.625 237.78125 C 360.664062 237.671875 360.699219 237.5625 360.734375 237.449219 C 361.027344 236.496094 361.804688 235.792969 362.765625 235.519531 C 362.96875 235.464844 363.175781 235.394531 363.378906 235.320312 L 418.652344 214.238281 C 419.292969 213.992188 420.011719 214.101562 420.550781 214.53125 C 429.5625 221.730469 506.175781 282.972656 506.175781 282.972656 C 507.449219 283.988281 508.851562 284.765625 510.320312 285.324219 L 510.339844 285.324219 C 511.441406 275.707031 512.003906 265.914062 512.003906 256.003906 C 512 193 489.242188 135.316406 451.488281 90.71875 Z M 451.488281 90.71875 " style="stroke: none; fill-rule: nonzero; fill-opacity: 1; fill: rgb(0, 0, 0);" fill="rgb(9.411765%,37.254902%,55.294118%)"></path><path d="M 190.742188 493.289062 C 145.398438 474.886719 106.523438 443.886719 78.476562 404.605469 L 79.15625 404.578125 C 79.085938 404.496094 79.011719 404.414062 78.9375 404.324219 C 78.691406 404.023438 78.492188 403.710938 78.316406 403.398438 L 47.535156 404.605469 C 82.683594 453.835938 134.839844 490.085938 195.425781 504.789062 L 195.4375 504.769531 Z M 190.742188 493.289062 " style="stroke: none; fill-rule: nonzero; fill-opacity: 1; fill: rgb(0, 0, 0);" fill="rgb(15.294118%,29.411765%,42.745098%)"></path></g></svg>